PathFileType	4	(X/Y/Z)	3_coords_data.trc
DataRate	CameraRate	NumFrames	NumMarkers	Units	OrigDataRate	OrigDataStartFrame	OrigNumFrames
30.0	30.0	5	21	m	30.0	20	58
Frame#	Time	THUMB_TIP	THUMB_IP	THUMB_MCP	THUMB_CMC	INDEX_TIP	INDEX_DIP	INDEX_PIP	INDEX_MCP	MIDDLE_TIP	MIDDLE_DIP	MIDDLE_PIP	MIDDLE_MCP	RING_TIP	RING_DIP	RING_PIP	RING_MCP	PINKY_TIP	PINKY_DIP	PINKY_PIP	PINKY_MCP	WRIST
X1	Y1	Z1	X2	Y2	Z2	X3	Y3	Z3	X4	Y4	Z4	X5	Y5	Z5	X6	Y6	Z6	X7	Y7	Z7	X8	Y8	Z8	X9	Y9	Z9	X10	Y10	Z10	X11	Y11	Z11	X12	Y12	Z12	X13	Y13	Z13	X14	Y14	Z14	X15	Y15	Z15	X16	Y16	Z16	X17	Y17	Z17	X18	Y18	Z18	X19	Y19	Z19	X20	Y20	Z20	X21	Y21	Z21
19	0.6333333333333333	-0.09601399993896484	-0.14466400146484376	0.9889450073242188	-0.08658550262451171	-0.12193499755859374	1.0030499877929688	-0.09181269836425782	-0.10080000305175782	1.02647998046875	-0.094106201171875	-0.06878479766845703	1.0478399658203126	-0.05920719909667969	-0.08263719940185547	0.9063350219726563	-0.06277830123901368	-0.08062999725341796	0.9301859741210937	-0.06830339813232422	-0.07794090270996094	0.9541810302734375	-0.0779197998046875	-0.07233480072021484	0.9909229736328125	-0.05905440139770508	-0.044174198150634766	0.8974229736328125	-0.06191139984130859	-0.045851200103759766	0.923344970703125	-0.0677219009399414	-0.04752090072631836	0.952260986328125	-0.07758460235595703	-0.049500900268554686	0.9881370239257813	-0.04733190155029297	0.0019079699516296382	0.9234180297851563	-0.055040298461914064	-0.006637750148773193	0.9446019897460938	-0.06540200042724609	-0.016244400024414064	0.9666199951171875	-0.07970989990234376	-0.030470199584960937	0.997655029296875	-0.0491692008972168	0.02884980010986328	0.9641690063476562	-0.058478401184082034	0.016701099395751953	0.9775029907226562	-0.06737010192871094	0.0049673600196838376	0.9893499755859375	-0.07773829650878906	-0.013954600334167481	1.007969970703125	-0.11709600067138672	-0.0415620002746582	1.0649100341796875
20	0.6666666666666666	-0.0959977035522461	-0.14452099609375	0.9888599853515625	-0.08663770294189453	-0.12174600219726563	1.003030029296875	-0.09179399871826172	-0.10068299865722656	1.0264200439453126	-0.09411489868164062	-0.06872899627685547	1.04772998046875	-0.05920149993896484	-0.08249250030517578	0.9062780151367188	-0.06277180099487305	-0.08052940368652343	0.9301309814453125	-0.06829560089111328	-0.07784519958496093	0.9541199951171875	-0.07801959991455078	-0.0722406005859375	0.9908889770507813	-0.05897700119018555	-0.044173099517822265	0.8974329833984375	-0.06189849853515625	-0.0458203010559082	0.9233729858398437	-0.0676769027709961	-0.04746659851074219	0.95222802734375	-0.07741539764404297	-0.049441799163818356	0.98814697265625	-0.04719260025024414	0.0019814399480819703	0.9233930053710937	-0.054975700378417966	-0.006598179817199707	0.9445679931640625	-0.06537750244140625	-0.016165899276733398	0.9666320190429688	-0.07977809906005859	-0.030329700469970702	0.997572998046875	-0.04907490158081055	0.028886600494384764	0.964114990234375	-0.05844419860839844	0.01674720001220703	0.9774500122070312	-0.06739769744873046	0.004988009929656982	0.9893480224609374	-0.07779250335693359	-0.013862600326538086	1.0079600219726563	-0.11702300262451172	-0.041539798736572264	1.06481005859375
21	0.7	-0.09594390106201171	-0.14428399658203125	0.9886409912109375	-0.08660140228271485	-0.12143900299072266	1.0028900146484374	-0.09177420043945313	-0.10046600341796875	1.026300048828125	-0.09422049713134766	-0.06858110046386719	1.047760009765625	-0.05932899856567383	-0.08221659851074219	0.9061069946289062	-0.0628016014099121	-0.08025550079345703	0.9300020141601563	-0.06825579833984376	-0.07763860321044921	0.9539829711914063	-0.07789949798583984	-0.07207779693603515	0.9908189697265625	-0.05894179916381836	-0.04407440185546875	0.8973400268554688	-0.06181079864501953	-0.04569110107421875	0.9232529907226562	-0.06763099670410157	-0.04733380126953125	0.952156982421875	-0.07751480102539063	-0.049258201599121094	0.9880999755859375	-0.04708140182495117	0.002099910020828247	0.923323974609375	-0.05489080047607422	-0.006436850070953369	0.944468017578125	-0.06525270080566406	-0.015970199584960938	0.9665360107421875	-0.07971720123291015	-0.030144899368286134	0.9974959716796875	-0.0490281982421875	0.02902400016784668	0.964051025390625	-0.05836759948730469	0.016916500091552735	0.9773790283203125	-0.06732710266113281	0.005193470001220703	0.9892750244140625	-0.07783419799804688	-0.013743599891662598	1.0078900146484375	-0.11700800323486328	-0.041413799285888675	1.06477001953125
22	0.7333333333333333	-0.09573040008544922	-0.14405099487304687	0.988427978515625	-0.0864010009765625	-0.12133699798583984	1.0026599731445311	-0.09167259979248046	-0.10035700225830078	1.0261199951171875	-0.09403759765625	-0.0683511962890625	1.0475799560546875	-0.05921179962158203	-0.0818041000366211	0.9059550170898437	-0.06272869873046875	-0.07990290069580078	0.929906982421875	-0.06818419647216797	-0.07728469848632813	0.9538729858398437	-0.0776875	-0.07187889862060547	0.9906530151367188	-0.058825801849365235	-0.04384909820556641	0.8972620239257812	-0.0616531982421875	-0.04546749877929687	0.92314697265625	-0.06750640106201172	-0.04704869842529297	0.9520239868164062	-0.07712640380859374	-0.04903860092163086	0.9878590087890625	-0.046900798797607425	0.0024022600650787347	0.9232650146484375	-0.05469969940185547	-0.006183020114898682	0.9444580078125	-0.06512770080566406	-0.015740699768066406	0.9665490112304688	-0.0794374008178711	-0.02984410095214844	0.9973040161132812	-0.04895090103149414	0.02925250053405762	0.9639359741210938	-0.058336898803710936	0.01711280059814453	0.9773619995117188	-0.06727210235595703	0.005393949985504151	0.9892789916992187	-0.07769550323486328	-0.013509300231933594	1.0077999877929686	-0.11702200317382813	-0.041228199005126955	1.064800048828125
23	0.7666666666666667	-0.09549340057373047	-0.14388499450683595	0.9882969970703125	-0.08619480133056641	-0.12119000244140625	1.0025800170898438	-0.0915259017944336	-0.10021499633789062	1.0260799560546876	-0.0940543975830078	-0.06829830169677735	1.0475899658203125	-0.05917670059204101	-0.08143769836425781	0.90585400390625	-0.06267599868774414	-0.07962889862060547	0.9298389892578125	-0.068122802734375	-0.07704560089111329	0.9538560180664063	-0.07762429809570312	-0.07170169830322265	0.9906160278320313	-0.058648799896240236	-0.0436875991821289	0.8972379760742187	-0.061525600433349606	-0.04528089904785156	0.923219970703125	-0.06728510284423828	-0.046920501708984375	0.952031005859375	-0.07703209686279297	-0.04892940139770508	0.9878179931640625	-0.046682701110839844	0.002552299976348877	0.9233839721679687	-0.054535701751708986	-0.0060117897987365726	0.9444639892578125	-0.06498999786376954	-0.015625699996948243	0.96647998046875	-0.07951039886474609	-0.029770599365234376	0.997302001953125	-0.04887979888916016	0.029370500564575196	0.9638930053710938	-0.05825230026245117	0.017218399047851562	0.9773060302734375	-0.06717870330810546	0.005498010158538819	0.9892319946289062	-0.07757929992675781	-0.013372799873352052	1.007760009765625	-0.11690599822998046	-0.04100139999389649	1.0646099853515625
